# xmcd
# Copyright (C) 1995-1998 Ti Kan
#
# Track frame offsets:
#       150
#       18481
#       36534
#       59301
#       75418
#       84093
#       98162
#       117440
#       142546
#       160762
#
# Disc length: 2336 seconds
#
# Revision: 0
# Processed by: cddbd v1.5.2PL0 Copyright (c) Steve Scherf et al.
# Submitted via: CD-Transfer v1.0
#
DISCID=6d091e0a
DTITLE=Morosin. Livio - Livio Morosin
DYEAR=14
DGENRE=
TTITLE0=Kaldir
TTITLE1=Put Sunca
TTITLE2=Mirna
TTITLE3=Porat
TTITLE4=Marinetti
TTITLE5=Autobus
TTITLE6=Jana
TTITLE7=Magla
TTITLE8=Æuk
TTITLE9=Kaos
EXTD=
EXTT0=
EXTT1=
EXTT2=
EXTT3=
EXTT4=
EXTT5=
EXTT6=
EXTT7=
EXTT8=
EXTT9=
PLAYORDER=
